PathFileType	4	(X/Y/Z)	Kaydara	
DataRate	CameraRate	NumFrames	NumMarkers	Units	OrigDataRate	OrigDataStartFrame	OrigNumFrames	
120.00	120.00	4	72	mm	120.00	135	268	
Frame#	Time	Hips			RightUpLeg			RightLeg			RightFoot			RightFoot_End			LeftUpLeg			LeftLeg			LeftFoot			LeftFoot_End			Spine			Spine1			Spine2			Spine3			Neck			Head			Head_End			RightShoulder			RightArm			RightForeArm			RightHand			RightHandThumb1			RightHandThumb2			RightHandThumb3			RightHandThumb3_End			RightInHandIndex			RightHandIndex1			RightHandIndex2			RightHandIndex3			RightHandIndex3_End			RightInHandMiddle			RightHandMiddle1			RightHandMiddle2			RightHandMiddle3			RightHandMiddle3_End			RightInHandRing			RightHandRing1			RightHandRing2			RightHandRing3			RightHandRing3_End			RightInHandPinky			RightHandPinky1			RightHandPinky2			RightHandPinky3			RightHandPinky3_End			LeftShoulder			LeftArm			LeftForeArm			LeftHand			LeftHandThumb1			LeftHandThumb2			LeftHandThumb3			LeftHandThumb3_End			LeftInHandIndex			LeftHandIndex1			LeftHandIndex2			LeftHandIndex3			LeftHandIndex3_End			LeftInHandMiddle			LeftHandMiddle1			LeftHandMiddle2			LeftHandMiddle3			LeftHandMiddle3_End			LeftInHandRing			LeftHandRing1			LeftHandRing2			LeftHandRing3			LeftHandRing3_End			LeftInHandPinky			LeftHandPinky1			LeftHandPinky2			LeftHandPinky3			LeftHandPinky3_End			
		X1	Y1	Z1	X2	Y2	Z2	X3	Y3	Z3	X4	Y4	Z4	X5	Y5	Z5	X6	Y6	Z6	X7	Y7	Z7	X8	Y8	Z8	X9	Y9	Z9	X10	Y10	Z10	X11	Y11	Z11	X12	Y12	Z12	X13	Y13	Z13	X14	Y14	Z14	X15	Y15	Z15	X16	Y16	Z16	X17	Y17	Z17	X18	Y18	Z18	X19	Y19	Z19	X20	Y20	Z20	X21	Y21	Z21	X22	Y22	Z22	X23	Y23	Z23	X24	Y24	Z24	X25	Y25	Z25	X26	Y26	Z26	X27	Y27	Z27	X28	Y28	Z28	X29	Y29	Z29	X30	Y30	Z30	X31	Y31	Z31	X32	Y32	Z32	X33	Y33	Z33	X34	Y34	Z34	X35	Y35	Z35	X36	Y36	Z36	X37	Y37	Z37	X38	Y38	Z38	X39	Y39	Z39	X40	Y40	Z40	X41	Y41	Z41	X42	Y42	Z42	X43	Y43	Z43	X44	Y44	Z44	X45	Y45	Z45	X46	Y46	Z46	X47	Y47	Z47	X48	Y48	Z48	X49	Y49	Z49	X50	Y50	Z50	X51	Y51	Z51	X52	Y52	Z52	X53	Y53	Z53	X54	Y54	Z54	X55	Y55	Z55	X56	Y56	Z56	X57	Y57	Z57	X58	Y58	Z58	X59	Y59	Z59	X60	Y60	Z60	X61	Y61	Z61	X62	Y62	Z62	X63	Y63	Z63	X64	Y64	Z64	X65	Y65	Z65	X66	Y66	Z66	X67	Y67	Z67	X68	Y68	Z68	X69	Y69	Z69	X70	Y70	Z70	X71	Y71	Z71	X72	Y72	Z72	

135	1.117	1446.805	859.65103	-201.189	1506.7247763199514	848.4813743940366	-234.52389565001815	1401.1629509959043	450.1170262831395	-271.79400585238324	1466.8251871108102	61.80454485536865	-371.78325800819925	1425.352381765637	-28.848307751003624	-225.97919406647065	1394.8239286497171	842.4458775078625	-154.29850392291164	1271.426764337435	449.92561480886866	-80.26718392912704	1205.8139579823855	73.34102990758755	84.27367009393254	1255.6941806921957	24.22428412164832	259.17675838182566	1408.4195610749675	984.2726814863262	-258.4512264036152	1359.6667280388772	1055.2062193444094	-302.2452899175357	1303.1423739357074	1124.347369835993	-347.89484182621464	1241.1959766264183	1182.9136709443899	-391.90312516048516	1174.0861375491072	1245.5097316949818	-435.14815782777373	1131.9614638154223	1318.8314760596243	-394.5282841993201	1109.2060829328702	1408.0182479537198	-266.0814929601206	1208.7304142100497	1229.7285443626747	-435.24556759758184	1262.5681106884108	1232.9513231310314	-487.6719400363354	1350.9484643129322	1056.8869104318026	-474.8610258022247	1425.654481781614	1026.2144682609287	-552.620403215459	1431.9704751284016	1045.2585867505213	-558.1520673171392	1431.4246870073048	1056.4414733642584	-572.2378467833834	1431.924267398305	1061.4268018519222	-582.050584035058	1433.093283570357	1063.1854489213636	-590.2339473083684	1436.838138911618	1037.1071296600278	-557.8971657553811	1452.2777404119606	1042.7221859110273	-569.3294153141404	1456.960610514666	1045.843267215322	-581.4227952904017	1454.6301158457286	1049.199081703124	-590.3225417456695	1449.1653822311825	1052.9314459323232	-598.6205881604403	1438.4051954396277	1029.252156257946	-557.7051762688297	1454.313873848143	1030.480374229008	-568.7508248244245	1459.5729340049927	1032.8304514080753	-581.8898590171103	1456.8328194760488	1036.372551756205	-592.5996089108661	1450.8881866440388	1040.210168845571	-601.6658211181815	1439.188700512795	1023.550109031842	-557.2380885105767	1454.3320802014834	1019.6740837967891	-566.6155192865054	1459.0424630237849	1020.6416127874177	-577.9920729469077	1456.4666043735224	1023.4842830644777	-588.2823976513937	1450.9089908640542	1026.8206215711455	-596.7879284647139	1439.090070444301	1016.888123797204	-556.6814087579077	1453.1597970424605	1009.196854019994	-564.8095699490781	1457.0625904493863	1008.3024021667494	-573.76113442066	1455.247065800282	1009.5684057474191	-581.1903325394698	1450.3603632464499	1012.0591668322853	-588.6807678813983	1183.5725259124329	1222.1664585361327	-405.08450702124514	1148.062391888756	1174.000206662574	-353.78396472008654	1231.9360381479128	1067.3239654321064	-470.0695713656007	1364.643880514619	1038.7364845664733	-446.7677834847558	1365.2728325185296	1058.215634150495	-450.7674466429436	1375.0968297867296	1061.1875887744961	-468.4969088316668	1381.8811408165338	1060.8250363209372	-482.6296573026759	1387.488063150467	1058.4420851627413	-495.9393498990896	1364.1741323573017	1052.4584301769062	-456.84364784354517	1367.3662364632366	1059.32124018392	-481.86813262879105	1374.6708597422764	1057.8235311821504	-502.9839166652251	1381.8011717815684	1054.8975761148013	-514.7465676872654	1389.4493104954804	1051.1301925585276	-523.5617616147564	1364.1492793488442	1045.3061158297255	-461.006065142735	1367.2478661178354	1048.132994860101	-487.66459563762027	1375.211378350855	1045.5248689418531	-511.17878991581847	1383.8103452219327	1041.5274995943091	-525.5968125576815	1392.1771032755576	1037.1781138868705	-535.3524945961226	1363.9989093916502	1040.127042837069	-463.28730059331076	1366.4950790177486	1038.3085383587186	-489.09771265969107	1373.4243437535577	1035.0349348134278	-510.0341146407864	1381.712496376018	1030.6479037970773	-524.1758144581524	1389.576402201301	1026.3066367718843	-533.4596755162123	1364.1376628330058	1033.571739961162	-465.35642516854705	1366.3413930193562	1028.0296881867657	-490.24304887588704	1371.861239229889	1023.8552163624057	-507.5842756698394	1377.892692431368	1019.9040146290389	-518.177987543366	1384.8508011793158	1015.6259865599641	-526.56237267244
136	1.125	1446.805	859.65103	-201.189	1506.3070462083174	848.3570228789883	-234.57624970813754	1401.248478547137	449.89133886299953	-271.6391539845446	1467.3316770650536	62.05527258524152	-372.2990032487154	1426.4188475311769	-28.79088538527886	-226.700254407571	1395.2197703113347	842.5613366846748	-154.25158050194256	1271.7863652958627	450.10497277692093	-79.96633108365587	1206.0119642930072	73.48900047312576	84.42566407560616	1256.1204014344883	24.293115677446885	259.227914560047	1408.540557477931	984.3194147010807	-258.4238386424526	1359.8572119407913	1055.3397984042438	-302.15584616086335	1303.4177944100807	1124.5999356327027	-347.73377738653875	1241.5565127552586	1183.3093429828598	-391.66760986627594	1174.5359523821746	1246.0532632855018	-434.82786475206035	1132.3890494728694	1319.382485743119	-394.2669001040377	1109.6552785032507	1408.6273602353453	-265.8845126642371	1209.0422698090008	1230.175255705833	-434.89328972369077	1262.4856987328508	1233.3298370946652	-486.9926523659096	1350.996927175131	1057.839534630983	-473.61942461485967	1425.3081986101415	1027.937869405032	-551.1742647972493	1431.7016679096157	1047.132529825401	-556.606451112402	1431.2614596880906	1058.4327553365035	-570.6457798591516	1431.8221184014283	1063.4895867910382	-580.4383461756837	1433.0313906287383	1065.2990967757912	-588.6153115991393	1436.5258518455955	1038.960720585758	-556.3831779075155	1451.9969438783003	1044.726079476228	-567.7693664021004	1456.7334606095935	1047.9385052899859	-579.8460840756943	1454.461423135695	1051.3404944856093	-588.7375796680868	1449.0620251024814	1055.1039210615313	-597.0302161434272	1438.0594541001888	1031.0720773067246	-556.2266338249915	1453.9807334896184	1032.4286972963907	-567.2465176343452	1459.2938549657233	1034.873500072435	-580.3722195649759	1456.622124852804	1038.4689375420262	-591.0743388581625	1450.7479318372502	1042.3393956817135	-600.1357683750986	1438.8181184180019	1025.3425139499766	-555.7856732962709	1453.9500673474504	1021.5579576418345	-565.1624582395625	1458.7029752229428	1022.6027878917845	-576.5323846688287	1456.190641411292	1025.4941097191652	-586.8179959214798	1450.698104415784	1028.860005966972	-595.3202861837557	1438.6930716906031	1018.6436848492709	-555.2611283061059	1452.7347127976695	1011.0139691908205	-563.4081908594732	1456.6644503625287	1010.1728210647477	-572.3622428754071	1454.8918218604178	1011.4701447689295	-579.7917841427565	1450.0607868358952	1013.9846819972761	-587.2815111361724	1184.1051012325768	1222.7011656445516	-404.86481421356734	1148.9170105785997	1174.8351582729977	-353.79876495353	1232.399382317645	1068.2977948254693	-469.29078285221135	1364.2827209581687	1040.067032080582	-445.88853488295354	1365.0088006683873	1059.6631241472478	-449.85463761936194	1374.8870832819634	1062.6698479560912	-467.4554375394041	1381.7029596815626	1062.3260048309132	-481.4938614421916	1387.330854503666	1059.9539489258373	-494.720883899385	1363.9005750762822	1053.905513241935	-455.91827175598127	1367.1864173027313	1060.888843745777	-480.82251864194035	1374.5353031831814	1059.429147494705	-501.8148973610448	1381.679432460304	1056.4967860636923	-513.4921901940933	1389.3297654423543	1052.7038313833218	-522.2309007833142	1363.854496393914	1046.731862863196	-460.0701486169144	1367.0330407384738	1049.664766885011	-486.6057072550458	1375.0417216801457	1047.0948568294293	-509.98419153793617	1383.6558659612724	1043.0881852139191	-524.2987256299405	1392.0242909187637	1038.7100603709316	-533.9704749411969	1363.6869286029244	1041.535101524052	-462.3473519836333	1366.2403960234972	1039.7975756600883	-488.04508060775373	1373.2057072483472	1036.5537762005301	-508.8623080370138	1381.5067190024765	1032.1559121040552	-522.9037189758048	1389.3713569702286	1027.7867405171141	-532.1084382087478	1363.801647218771	1034.9523339377974	-464.41256091534217	1366.0437775641392	1029.4691961546048	-489.1945482005825	1371.5870404171455	1025.3127558627077	-506.43946212398816	1377.6252457382739	1021.3508334495955	-516.9595908662477	1384.5824843387136	1017.0464642209674	-525.2736208844445
137	1.133	1446.805	859.65103	-201.189	1505.8888025309334	848.2309110975945	-234.63139116895604	1401.3477199445017	449.6590916500853	-271.481558094538	1467.8683155869453	62.30282893823556	-372.8354958422272	1427.524510034664	-28.738084571637476	-227.43880894065865	1395.6160932376054	842.6790071982633	-154.20084449895805	1272.1560230142945	450.28377118195533	-79.65985909703046	1206.2306213758766	73.64438413653856	84.59774782280637	1256.5796451756958	24.34390393144995	259.2917176634286	1408.6616566056887	984.3642671610118	-258.40079727736384	1360.0447611095099	1055.4696785312262	-302.0702291089765	1303.6836255726607	1124.843895150385	-347.5756657270092	1241.9014635840508	1183.690042294922	-391.43496362387003	1174.9638474232981	1246.5747586887442	-434.51068924285323	1132.8064346674905	1319.917778837535	-394.01163851046175	1110.1000816501617	1409.2348466469646	-265.70079517021657	1209.3316824453125	1230.6066843079725	-434.5403249528626	1262.3800763474587	1233.691109551018	-486.3120474534923	1351.0163300586805	1058.7718393932983	-472.37445230083284	1424.937861067127	1029.6230039184045	-549.7171392320955	1431.3717048214064	1048.9735420706447	-555.0528258496382	1431.0307453567243	1060.3895568825524	-569.0469397918794	1431.6523553698266	1065.518832911786	-578.8174974923649	1432.905470356336	1067.3817364226209	-586.9842057131195	1436.1621236416854	1040.7907261127943	-554.8510465151788	1451.6487042008898	1046.729737672863	-566.1733949187899	1456.439934924329	1050.0415269666423	-578.2250185219048	1454.2314875157945	1053.4867081565005	-587.1087551911364	1448.9046534808904	1057.273332769019	-595.4002617812663	1437.6750854467416	1032.8727673211513	-554.7234036058773	1453.6002991651624	1034.3829076895506	-565.6966655031229	1458.970402245704	1036.9316921667346	-578.7990220316459	1456.3740777396504	1040.5770838355386	-589.4937204167911	1450.5786590022149	1044.4718828592195	-598.5548482974707	1438.4182771156939	1027.118256826378	-554.3043486570608	1453.5388687495886	1023.4502054578028	-563.6579313194233	1458.3386687850505	1024.580872756967	-575.0117133011705	1455.8975922007141	1027.517833412887	-585.292415860921	1450.478418538983	1030.9054035222887	-593.7954727298088	1438.2788677886574	1020.3840752292	-553.8080518299532	1452.2995642639744	1012.8401613911764	-561.9507438024738	1456.2625602850399	1012.0597286334157	-570.898537045825	1454.5398352322838	1013.3864822860568	-578.3277129860203	1449.7726040519397	1015.9179977718969	-585.8199893979328	1184.6198863535367	1223.2111884069654	-404.6519015148252	1149.7718517974672	1175.6177338637242	-353.9056868676976	1232.9734911361804	1069.4037453113003	-468.52834462647644	1363.9474923710693	1041.6433530625554	-444.9435694397868	1364.767538829592	1061.3565825574847	-448.87805347708075	1374.6953829720528	1064.3996430822365	-466.353849259031	1381.5392313030445	1064.0755490807376	-480.3001794111119	1387.1848683439484	1061.7152141372712	-493.44610455711563	1363.6484284799865	1055.598254059712	-454.9278857134064	1367.0200154430786	1062.7023974886881	-479.7128870778158	1374.4076161268933	1061.2817538504946	-500.583908583009	1381.5629927333005	1058.344100078552	-512.1780575429423	1389.2139851016832	1054.526820144701	-520.8427719499238	1363.5805900611745	1048.4031695389365	-459.06836133358485	1366.8310027405369	1051.4423180018262	-485.48146189025795	1374.8787605137413	1048.911751218958	-508.72636395167876	1383.5049422134916	1044.8971210464304	-522.9400315441887	1391.8733422878036	1040.4916215643577	-532.530533265067	1363.3956546914849	1043.1886074837457	-461.34088992810115	1365.99898590167	1041.5321793159712	-486.92579318603856	1372.9949937899098	1038.3191375133397	-507.6255838868097	1381.3058389041075	1033.9117360128819	-521.569164313747	1389.1696076418584	1029.5159339893914	-530.6972432323978	1363.4863878863748	1036.5783398294134	-463.4015458866748	1365.7601278269003	1031.1541550143706	-488.0783210978077	1371.3225111590025	1027.0164992274324	-505.2281229836686	1377.3652455487993	1023.0447833520103	-515.6763769270274	1384.3201982883336	1018.715195810081	-523.9222162054873
138	1.142	1446.805	859.65103	-201.189	1505.4714227112452	848.1014462752157	-234.67688566031507	1401.4195376652444	449.43438792219695	-271.34260688118525	1468.3863532516561	62.55559653690248	-373.3483250487963	1428.597136940592	-28.673936786775982	-228.15742557207008	1396.0092776229399	842.7996072462768	-154.15920644648705	1272.514687601834	450.4673740778225	-79.36704841447504	1206.433796160904	73.80318727616795	84.75202411172403	1257.0209010437725	24.409096264063354	259.3400792635013	1408.7927049294426	984.4111687249225	-258.38066764995983	1360.2513958546958	1055.6027972002694	-301.9955076395172	1303.9845142456672	1125.0964693841322	-347.4393092529752	1242.293585211229	1184.0850540642823	-391.2323604866596	1175.4513908462732	1247.1168413172497	-434.2322765030314	1133.276616791055	1320.4718982323063	-393.79652809259653	1110.5946181246898	1409.855257606002	-265.5544750671077	1209.6802469263807	1231.0503623188695	-434.2258173496987	1262.3346389700978	1234.0526278616173	-485.6795271045939	1351.0845123471613	1059.6938490310447	-471.17306252048354	1424.6931167756982	1031.273522773579	-548.2174561479729	1431.083862638751	1050.793691592458	-553.4297569732867	1430.8386998670514	1062.3421224572553	-567.3598618090541	1431.5295161455888	1067.5614878543822	-577.0906327716223	1432.8424504616444	1069.4976798615528	-585.2282923217858	1435.8651152550303	1042.6249714745268	-553.2272384128285	1451.3422432769264	1048.8102466454836	-564.4063711094561	1456.2023932555473	1052.260567105087	-576.3936648674513	1454.0769369858283	1055.7564443418803	-585.2640099069854	1448.8458793176962	1059.5611495110095	-593.5623823968243	1437.3887525132945	1034.6911010523008	-553.1193216692589	1453.3105070850365	1036.432845113912	-563.9635336803065	1458.7573566862632	1039.1298355468648	-576.9988088174835	1456.2618965957502	1042.8349947190425	-587.6788527321779	1450.5716262141293	1046.7488841219406	-596.7482163013527	1438.1389818857854	1028.9194287551427	-552.7175004934004	1453.2603769067314	1025.445133592644	-561.9693382443246	1458.1286429806787	1026.7016022106577	-573.268044892649	1455.7857046582533	1029.6944184706986	-583.5363997716618	1450.4657944119645	1033.099095328027	-592.0480653064764	1438.0138758406292	1022.1554393752609	-552.2480178355976	1452.0416009943322	1014.7721565557856	-560.3126797499222	1456.061902355943	1014.0863630498991	-569.2221007420497	1454.4119516056905	1015.4508970494662	-576.64504447862	1449.733333099041	1017.9958687514046	-584.1465377698783	1185.186930195929	1223.7467858175455	-404.47259922603484	1150.6693603782335	1176.441384995099	-354.016116455547	1233.5621958751685	1070.4857709453138	-467.78200097900464	1363.7158667894275	1043.0518609193139	-444.102667682259	1364.6372904142545	1062.877032017221	-448.00009959064346	1374.6214714950697	1065.9508055614629	-465.34501593776196	1381.4983993756996	1065.6432579200027	-479.19561890703807	1387.166330225848	1063.2925627298375	-492.25781631893096	1363.5096467083326	1057.1202130428846	-454.03738458974533	1366.9818376358223	1064.3423940696446	-478.69797470553664	1374.416726988418	1062.9577824001594	-499.4434548758195	1381.586230362152	1060.0120268477103	-510.95156373104214	1389.2386120049443	1056.1674566742445	-519.5396509639708	1363.4204699492557	1049.9056319964834	-458.1678613938563	1366.757472320286	1053.0493870593782	-484.45421977912105	1374.853653170857	1050.5551263204438	-507.5611540347207	1383.4953537445526	1046.5292740717625	-521.6705549106711	1391.8645455043552	1042.0932065581358	-531.1770032899818	1363.2180939064779	1044.6747570383202	-460.436839093258	1365.8845152698607	1043.099236840318	-485.9060589214877	1372.9193409770357	1039.9146012641445	-506.48482098765834	1381.2433682660412	1035.494636789614	-520.3274063182595	1389.1070250402975	1031.0692848013066	-529.3762539455155	1363.2841605215679	1038.0386319235433	-462.4943208200881	1365.601293928031	1032.6742956023218	-487.0641461020123	1371.1892201264013	1028.5539567751064	-504.11629644525243	1377.2388796668502	1024.5704630603539	-514.4905271170102	1384.1921875113314	1020.2131830683287	-522.6659791430253
